<?xml version="1.0" encoding="UTF-8" standalone="no"?>
<!DOCTYPE svg PUBLIC "-//W3C//DTD SVG 1.1//EN" "http://www.w3.org/Graphics/SVG/1.1/DTD/svg11.dtd">
<!-- Created with Vectornator (http://vectornator.io/) -->
<svg height="100%" stroke-miterlimit="10" style="fill-rule:nonzero;clip-rule:evenodd;stroke-linecap:round;stroke-linejoin:round;" version="1.1" viewBox="0 0 550 400" width="100%" xml:space="preserve" xmlns="http://www.w3.org/2000/svg" xmlns:vectornator="http://vectornator.io" xmlns:xlink="http://www.w3.org/1999/xlink">
<defs/>
<clipPath id="ArtboardFrame">
<rect height="400" width="550" x="0" y="0"/>
</clipPath>
<g clip-path="url(#ArtboardFrame)" id="Calque-1" vectornator:layerName="Calque 1">
<g opacity="1">
<path d="M14.9599-0.0674004L534.96-0.0674004C539.378-0.0674004 542.96 3.51432 542.96 7.9326L542.96 337.933C542.96 342.351 539.378 345.933 534.96 345.933L14.9599 345.933C10.5416 345.933 6.95985 342.351 6.95985 337.933L6.95985 7.9326C6.95985 3.51432 10.5416-0.0674005 14.9599-0.0674004Z" fill="#e8eaf6" fill-rule="nonzero" opacity="1" stroke="none"/>
<g opacity="1">
<clipPath id="ClipPath">
<path d="M14.9599-0.0674004L534.96-0.0674004C539.378-0.0674004 542.96 3.51432 542.96 7.9326L542.96 337.933C542.96 342.351 539.378 345.933 534.96 345.933L14.9599 345.933C10.5416 345.933 6.95985 342.351 6.95985 337.933L6.95985 7.9326C6.95985 3.51432 10.5416-0.0674005 14.9599-0.0674004Z"/>
</clipPath>
<g clip-path="url(#ClipPath)">
<path d="M3.42985 0.1296L550.43 0.1296L550.43 59.1296L3.42985 59.1296L3.42985 0.1296Z" fill="#242a45" fill-rule="evenodd" opacity="1" stroke="none"/>
<g opacity="1">
<path d="M29.4299 30.1296C29.4299 21.293 36.5933 14.1296 45.4299 14.1296C54.2664 14.1296 61.4299 21.293 61.4299 30.1296C61.4299 38.9662 54.2664 46.1296 45.4299 46.1296C36.5933 46.1296 29.4299 38.9662 29.4299 30.1296Z" fill="#ffffff" fill-rule="evenodd" opacity="0.245" stroke="none"/>
<path d="M490.43 30.1296C490.43 21.293 497.593 14.1296 506.43 14.1296C515.266 14.1296 522.43 21.293 522.43 30.1296C522.43 38.9662 515.266 46.1296 506.43 46.1296C497.593 46.1296 490.43 38.9662 490.43 30.1296Z" fill="#ffffff" fill-rule="evenodd" opacity="0.104" stroke="none"/>
<g opacity="1">
<path d="M79.4299 20.1296L193.43 20.1296C195.087 20.1296 196.43 21.4727 196.43 23.1296L196.43 23.1296C196.43 24.7865 195.087 26.1296 193.43 26.1296L79.4299 26.1296C77.773 26.1296 76.4299 24.7865 76.4298 23.1296L76.4298 23.1296C76.4298 21.4727 77.773 20.1296 79.4299 20.1296Z" fill="#ffffff" fill-rule="evenodd" opacity="0.75" stroke="none"/>
<path d="M79.4299 34.1296L137.43 34.1296C139.087 34.1296 140.43 35.4727 140.43 37.1296L140.43 37.1296C140.43 38.7865 139.087 40.1296 137.43 40.1296L79.4299 40.1296C77.773 40.1296 76.4299 38.7865 76.4298 37.1296L76.4298 37.1296C76.4298 35.4727 77.773 34.1296 79.4299 34.1296Z" fill="#ffffff" fill-rule="evenodd" opacity="0.25" stroke="none"/>
</g>
</g>
</g>
</g>
<g opacity="1">
<clipPath id="ClipPath_2">
<path d="M14.9599-0.0674004L534.96-0.0674004C539.378-0.0674004 542.96 3.51432 542.96 7.9326L542.96 337.933C542.96 342.351 539.378 345.933 534.96 345.933L14.9599 345.933C10.5416 345.933 6.95985 342.351 6.95985 337.933L6.95985 7.9326C6.95985 3.51432 10.5416-0.0674005 14.9599-0.0674004Z"/>
</clipPath>
<g clip-path="url(#ClipPath_2)">
<path d="M71.9599 92.9326L316.96 92.9326C321.378 92.9326 324.96 96.5143 324.96 100.933L324.96 400.933C324.96 405.351 321.378 408.933 316.96 408.933L71.9599 408.933C67.5416 408.933 63.9599 405.351 63.9599 400.933L63.9599 100.933C63.9598 96.5143 67.5416 92.9326 71.9599 92.9326Z" fill="#ffffff" fill-rule="evenodd" opacity="1" stroke="none"/>
<path d="M366.96 92.9326L478.96 92.9326C483.378 92.9326 486.96 96.5143 486.96 100.933L486.96 400.933C486.96 405.351 483.378 408.933 478.96 408.933L366.96 408.933C362.542 408.933 358.96 405.351 358.96 400.933L358.96 100.933C358.96 96.5143 362.542 92.9326 366.96 92.9326Z" fill="#ffffff" fill-rule="evenodd" opacity="1" stroke="none"/>
<path d="M145.43 131.13L259.43 131.13C261.087 131.13 262.43 132.473 262.43 134.13L262.43 134.13C262.43 135.786 261.087 137.13 259.43 137.13L145.43 137.13C143.773 137.13 142.43 135.786 142.43 134.13L142.43 134.13C142.43 132.473 143.773 131.13 145.43 131.13Z" fill="#242a45" fill-rule="evenodd" opacity="0.5" stroke="none"/>
</g>
</g>
<g opacity="1">
<path d="M95.4299 141.13C95.4299 132.293 102.593 125.13 111.43 125.13C120.266 125.13 127.43 132.293 127.43 141.13C127.43 149.966 120.266 157.13 111.43 157.13C102.593 157.13 95.4299 149.966 95.4299 141.13Z" fill="#f98e5d" fill-rule="evenodd" opacity="1" stroke="none"/>
<path d="M382.43 115.13L464.43 115.13C466.087 115.13 467.43 116.473 467.43 118.13L467.43 118.13C467.43 119.786 466.087 121.13 464.43 121.13L382.43 121.13C380.773 121.13 379.43 119.786 379.43 118.13L379.43 118.13C379.43 116.473 380.773 115.13 382.43 115.13Z" fill="#242a45" fill-rule="evenodd" opacity="0.25" stroke="none"/>
<path d="M382.43 135.13L464.43 135.13C466.087 135.13 467.43 136.473 467.43 138.13L467.43 138.13C467.43 139.786 466.087 141.13 464.43 141.13L382.43 141.13C380.773 141.13 379.43 139.786 379.43 138.13L379.43 138.13C379.43 136.473 380.773 135.13 382.43 135.13Z" fill="#242a45" fill-rule="evenodd" opacity="0.25" stroke="none"/>
<path d="M382.43 155.13L464.43 155.13C466.087 155.13 467.43 156.473 467.43 158.13L467.43 158.13C467.43 159.786 466.087 161.13 464.43 161.13L382.43 161.13C380.773 161.13 379.43 159.786 379.43 158.13L379.43 158.13C379.43 156.473 380.773 155.13 382.43 155.13Z" fill="#242a45" fill-rule="evenodd" opacity="0.25" stroke="none"/>
<path d="M382.43 175.13L464.43 175.13C466.087 175.13 467.43 176.473 467.43 178.13L467.43 178.13C467.43 179.786 466.087 181.13 464.43 181.13L382.43 181.13C380.773 181.13 379.43 179.786 379.43 178.13L379.43 178.13C379.43 176.473 380.773 175.13 382.43 175.13Z" fill="#242a45" fill-rule="evenodd" opacity="0.25" stroke="none"/>
<path d="M382.43 209.13L464.43 209.13C466.087 209.13 467.43 210.473 467.43 212.13L467.43 212.13C467.43 213.786 466.087 215.13 464.43 215.13L382.43 215.13C380.773 215.13 379.43 213.786 379.43 212.13L379.43 212.13C379.43 210.473 380.773 209.13 382.43 209.13Z" fill="#242a45" fill-rule="evenodd" opacity="0.25" stroke="none"/>
<path d="M382.43 229.13L464.43 229.13C466.087 229.13 467.43 230.473 467.43 232.13L467.43 232.13C467.43 233.786 466.087 235.13 464.43 235.13L382.43 235.13C380.773 235.13 379.43 233.786 379.43 232.13L379.43 232.13C379.43 230.473 380.773 229.13 382.43 229.13Z" fill="#242a45" fill-rule="evenodd" opacity="0.25" stroke="none"/>
<path d="M382.43 249.13L464.43 249.13C466.087 249.13 467.43 250.473 467.43 252.13L467.43 252.13C467.43 253.786 466.087 255.13 464.43 255.13L382.43 255.13C380.773 255.13 379.43 253.786 379.43 252.13L379.43 252.13C379.43 250.473 380.773 249.13 382.43 249.13Z" fill="#242a45" fill-rule="evenodd" opacity="0.25" stroke="none"/>
<path d="M145.43 145.13L203.43 145.13C205.087 145.13 206.43 146.473 206.43 148.13L206.43 148.13C206.43 149.786 205.087 151.13 203.43 151.13L145.43 151.13C143.773 151.13 142.43 149.786 142.43 148.13L142.43 148.13C142.43 146.473 143.773 145.13 145.43 145.13Z" fill="#242a45" fill-rule="evenodd" opacity="0.25" stroke="none"/>
</g>
<g opacity="1">
<path d="M95.4299 197.13C95.4299 188.293 102.593 181.13 111.43 181.13C120.266 181.13 127.43 188.293 127.43 197.13C127.43 205.966 120.266 213.13 111.43 213.13C102.593 213.13 95.4299 205.966 95.4299 197.13Z" fill="#6ac6d6" fill-rule="evenodd" opacity="1" stroke="none"/>
<path d="M145.43 187.13L259.43 187.13C261.087 187.13 262.43 188.473 262.43 190.13L262.43 190.13C262.43 191.786 261.087 193.13 259.43 193.13L145.43 193.13C143.773 193.13 142.43 191.786 142.43 190.13L142.43 190.13C142.43 188.473 143.773 187.13 145.43 187.13Z" fill="#242a45" fill-rule="evenodd" opacity="0.5" stroke="none"/>
<path d="M145.43 201.13L203.43 201.13C205.087 201.13 206.43 202.473 206.43 204.13L206.43 204.13C206.43 205.786 205.087 207.13 203.43 207.13L145.43 207.13C143.773 207.13 142.43 205.786 142.43 204.13L142.43 204.13C142.43 202.473 143.773 201.13 145.43 201.13Z" fill="#242a45" fill-rule="evenodd" opacity="0.25" stroke="none"/>
</g>
<g opacity="1">
<path d="M95.4299 253.13C95.4299 244.293 102.593 237.13 111.43 237.13C120.266 237.13 127.43 244.293 127.43 253.13C127.43 261.966 120.266 269.13 111.43 269.13C102.593 269.13 95.4299 261.966 95.4299 253.13Z" fill="#a47ed4" fill-rule="evenodd" opacity="1" stroke="none"/>
<path d="M145.43 243.13L259.43 243.13C261.087 243.13 262.43 244.473 262.43 246.13L262.43 246.13C262.43 247.786 261.087 249.13 259.43 249.13L145.43 249.13C143.773 249.13 142.43 247.786 142.43 246.13L142.43 246.13C142.43 244.473 143.773 243.13 145.43 243.13Z" fill="#242a45" fill-rule="evenodd" opacity="0.5" stroke="none"/>
<path d="M145.43 257.13L203.43 257.13C205.087 257.13 206.43 258.473 206.43 260.13L206.43 260.13C206.43 261.786 205.087 263.13 203.43 263.13L145.43 263.13C143.773 263.13 142.43 261.786 142.43 260.13L142.43 260.13C142.43 258.473 143.773 257.13 145.43 257.13Z" fill="#242a45" fill-rule="evenodd" opacity="0.25" stroke="none"/>
</g>
<g opacity="1">
<path d="M95.4299 309.13C95.4299 300.293 102.593 293.13 111.43 293.13C120.266 293.13 127.43 300.293 127.43 309.13C127.43 317.966 120.266 325.13 111.43 325.13C102.593 325.13 95.4299 317.966 95.4299 309.13Z" fill="#ec7878" fill-rule="evenodd" opacity="1" stroke="none"/>
<path d="M145.43 299.13L259.43 299.13C261.087 299.13 262.43 300.473 262.43 302.13L262.43 302.13C262.43 303.786 261.087 305.13 259.43 305.13L145.43 305.13C143.773 305.13 142.43 303.786 142.43 302.13L142.43 302.13C142.43 300.473 143.773 299.13 145.43 299.13Z" fill="#242a45" fill-rule="evenodd" opacity="0.5" stroke="none"/>
<path d="M145.43 313.13L203.43 313.13C205.087 313.13 206.43 314.473 206.43 316.13L206.43 316.13C206.43 317.786 205.087 319.13 203.43 319.13L145.43 319.13C143.773 319.13 142.43 317.786 142.43 316.13L142.43 316.13C142.43 314.473 143.773 313.13 145.43 313.13Z" fill="#242a45" fill-rule="evenodd" opacity="0.25" stroke="none"/>
</g>
</g>
</g>
</svg>
