<?xml version="1.0" encoding="UTF-8" standalone="no"?>
<!DOCTYPE svg PUBLIC "-//W3C//DTD SVG 1.1//EN" "http://www.w3.org/Graphics/SVG/1.1/DTD/svg11.dtd">
<!-- Created with Vectornator (http://vectornator.io/) -->
<svg height="100%" stroke-miterlimit="10" style="fill-rule:nonzero;clip-rule:evenodd;stroke-linecap:round;stroke-linejoin:round;" version="1.1" viewBox="0 0 550 400" width="100%" xml:space="preserve" xmlns="http://www.w3.org/2000/svg" xmlns:vectornator="http://vectornator.io" xmlns:xlink="http://www.w3.org/1999/xlink">
<defs/>
<g id="Calque-1" vectornator:layerName="Calque 1">
<g opacity="1">
<path d="M79.419 2.13825L413.419 2.13825C417.837 2.13825 421.419 5.71997 421.419 10.1382L421.419 340.138C421.419 344.557 417.837 348.138 413.419 348.138L79.419 348.138C75.0007 348.138 71.419 344.557 71.419 340.138L71.419 10.1382C71.419 5.71997 75.0007 2.13825 79.419 2.13825Z" fill="#e8eaf6" fill-rule="nonzero" opacity="1" stroke="none"/>
<g opacity="1">
<clipPath id="ClipPath">
<path d="M79.419 2.13825L413.419 2.13825C417.837 2.13825 421.419 5.71997 421.419 10.1382L421.419 340.138C421.419 344.557 417.837 348.138 413.419 348.138L79.419 348.138C75.0007 348.138 71.419 344.557 71.419 340.138L71.419 10.1382C71.419 5.71997 75.0007 2.13825 79.419 2.13825Z"/>
</clipPath>
<g clip-path="url(#ClipPath)">
<path d="M67.889 2.33525L614.889 2.33525L614.889 61.3352L67.889 61.3352L67.889 2.33525Z" fill="#242a45" fill-rule="evenodd" opacity="1" stroke="none"/>
<g opacity="1">
<path d="M93.889 32.3352C93.889 23.4987 101.052 16.3352 109.889 16.3352C118.726 16.3352 125.889 23.4987 125.889 32.3352C125.889 41.1718 118.726 48.3352 109.889 48.3352C101.052 48.3352 93.889 41.1718 93.889 32.3352Z" fill="#ffffff" fill-rule="evenodd" opacity="0.245" stroke="none"/>
<g opacity="1">
<path d="M143.889 22.3352L257.889 22.3352C259.546 22.3352 260.889 23.6784 260.889 25.3352L260.889 25.3352C260.889 26.9921 259.546 28.3352 257.889 28.3352L143.889 28.3352C142.232 28.3352 140.889 26.9921 140.889 25.3352L140.889 25.3352C140.889 23.6784 142.232 22.3352 143.889 22.3352Z" fill="#ffffff" fill-rule="evenodd" opacity="0.75" stroke="none"/>
<path d="M143.889 36.3352L201.889 36.3352C203.546 36.3352 204.889 37.6784 204.889 39.3352L204.889 39.3352C204.889 40.9921 203.546 42.3352 201.889 42.3352L143.889 42.3352C142.232 42.3352 140.889 40.9921 140.889 39.3352L140.889 39.3352C140.889 37.6784 142.232 36.3352 143.889 36.3352Z" fill="#ffffff" fill-rule="evenodd" opacity="0.25" stroke="none"/>
</g>
</g>
</g>
</g>
<g opacity="1">
<path d="M106.419 140.138L290.419 140.138C294.837 140.138 298.419 143.72 298.419 148.138L298.419 387.138C298.419 391.557 294.837 395.138 290.419 395.138L106.419 395.138C102.001 395.138 98.419 391.557 98.419 387.138L98.419 148.138C98.419 143.72 102.001 140.138 106.419 140.138Z" fill="#000000" fill-rule="evenodd" opacity="1" stroke="none"/>
<path d="M106.419 140.138L290.419 140.138C294.837 140.138 298.419 143.72 298.419 148.138L298.419 387.138C298.419 391.557 294.837 395.138 290.419 395.138L106.419 395.138C102.001 395.138 98.419 391.557 98.419 387.138L98.419 148.138C98.419 143.72 102.001 140.138 106.419 140.138Z" fill="#ffffff" fill-rule="evenodd" opacity="1" stroke="none"/>
<g opacity="1">
<path d="M170.102 175.138L265.419 175.138C267.076 175.138 268.419 176.481 268.419 178.138L268.419 178.138C268.419 179.795 267.076 181.138 265.419 181.138L170.102 181.138C168.445 181.138 167.102 179.795 167.102 178.138L167.102 178.138C167.102 176.481 168.445 175.138 170.102 175.138Z" fill="#242a45" fill-rule="evenodd" opacity="0.5" stroke="none"/>
<path d="M121.419 185.138C121.419 176.302 128.582 169.138 137.419 169.138C146.256 169.138 153.419 176.302 153.419 185.138C153.419 193.975 146.256 201.138 137.419 201.138C128.582 201.138 121.419 193.975 121.419 185.138Z" fill="#5267df" fill-rule="evenodd" opacity="1" stroke="none"/>
<path d="M170.102 189.138L218.138 189.138C219.795 189.138 221.138 190.481 221.138 192.138L221.138 192.138C221.138 193.795 219.795 195.138 218.138 195.138L170.102 195.138C168.445 195.138 167.102 193.795 167.102 192.138L167.102 192.138C167.102 190.481 168.445 189.138 170.102 189.138Z" fill="#242a45" fill-rule="evenodd" opacity="0.25" stroke="none"/>
<g opacity="1">
<path d="M121.419 241.138C121.419 232.302 128.582 225.138 137.419 225.138C146.256 225.138 153.419 232.302 153.419 241.138C153.419 249.975 146.256 257.138 137.419 257.138C128.582 257.138 121.419 249.975 121.419 241.138Z" fill="#5267df" fill-rule="evenodd" opacity="1" stroke="none"/>
<path d="M170.102 231.138L265.419 231.138C267.076 231.138 268.419 232.481 268.419 234.138L268.419 234.138C268.419 235.795 267.076 237.138 265.419 237.138L170.102 237.138C168.445 237.138 167.102 235.795 167.102 234.138L167.102 234.138C167.102 232.481 168.445 231.138 170.102 231.138Z" fill="#242a45" fill-rule="evenodd" opacity="0.5" stroke="none"/>
<path d="M170.102 245.138L218.138 245.138C219.795 245.138 221.138 246.481 221.138 248.138L221.138 248.138C221.138 249.795 219.795 251.138 218.138 251.138L170.102 251.138C168.445 251.138 167.102 249.795 167.102 248.138L167.102 248.138C167.102 246.481 168.445 245.138 170.102 245.138Z" fill="#242a45" fill-rule="evenodd" opacity="0.25" stroke="none"/>
</g>
<g opacity="1">
<path d="M121.419 297.138C121.419 288.302 128.582 281.138 137.419 281.138C146.256 281.138 153.419 288.302 153.419 297.138C153.419 305.975 146.256 313.138 137.419 313.138C128.582 313.138 121.419 305.975 121.419 297.138Z" fill="#5267df" fill-rule="evenodd" opacity="1" stroke="none"/>
<path d="M170.102 287.138L265.419 287.138C267.076 287.138 268.419 288.481 268.419 290.138L268.419 290.138C268.419 291.795 267.076 293.138 265.419 293.138L170.102 293.138C168.445 293.138 167.102 291.795 167.102 290.138L167.102 290.138C167.102 288.481 168.445 287.138 170.102 287.138Z" fill="#242a45" fill-rule="evenodd" opacity="0.5" stroke="none"/>
<path d="M170.102 301.138L218.138 301.138C219.795 301.138 221.138 302.481 221.138 304.138L221.138 304.138C221.138 305.795 219.795 307.138 218.138 307.138L170.102 307.138C168.445 307.138 167.102 305.795 167.102 304.138L167.102 304.138C167.102 302.481 168.445 301.138 170.102 301.138Z" fill="#242a45" fill-rule="evenodd" opacity="0.25" stroke="none"/>
</g>
<g opacity="1">
<path d="M121.419 353.138C121.419 344.302 128.582 337.138 137.419 337.138C146.256 337.138 153.419 344.302 153.419 353.138C153.419 361.975 146.256 369.138 137.419 369.138C128.582 369.138 121.419 361.975 121.419 353.138Z" fill="#5267df" fill-rule="evenodd" opacity="1" stroke="none"/>
<path d="M170.102 343.138L265.419 343.138C267.076 343.138 268.419 344.481 268.419 346.138L268.419 346.138C268.419 347.795 267.076 349.138 265.419 349.138L170.102 349.138C168.445 349.138 167.102 347.795 167.102 346.138L167.102 346.138C167.102 344.481 168.445 343.138 170.102 343.138Z" fill="#242a45" fill-rule="evenodd" opacity="0.5" stroke="none"/>
<path d="M170.102 357.138L218.138 357.138C219.795 357.138 221.138 358.481 221.138 360.138L221.138 360.138C221.138 361.795 219.795 363.138 218.138 363.138L170.102 363.138C168.445 363.138 167.102 361.795 167.102 360.138L167.102 360.138C167.102 358.481 168.445 357.138 170.102 357.138Z" fill="#242a45" fill-rule="evenodd" opacity="0.25" stroke="none"/>
</g>
</g>
</g>
<g opacity="1">
<path d="M330.419 140.138L514.419 140.138C518.837 140.138 522.419 143.72 522.419 148.138L522.419 387.138C522.419 391.557 518.837 395.138 514.419 395.138L330.419 395.138C326.001 395.138 322.419 391.557 322.419 387.138L322.419 148.138C322.419 143.72 326.001 140.138 330.419 140.138Z" fill="#000000" fill-rule="evenodd" opacity="1" stroke="none"/>
<path d="M330.419 140.138L514.419 140.138C518.837 140.138 522.419 143.72 522.419 148.138L522.419 387.138C522.419 391.557 518.837 395.138 514.419 395.138L330.419 395.138C326.001 395.138 322.419 391.557 322.419 387.138L322.419 148.138C322.419 143.72 326.001 140.138 330.419 140.138Z" fill="#ffffff" fill-rule="evenodd" opacity="1" stroke="none"/>
<g opacity="1">
<path d="M394.102 175.138L489.419 175.138C491.076 175.138 492.419 176.481 492.419 178.138L492.419 178.138C492.419 179.795 491.076 181.138 489.419 181.138L394.102 181.138C392.445 181.138 391.102 179.795 391.102 178.138L391.102 178.138C391.102 176.481 392.445 175.138 394.102 175.138Z" fill="#242a45" fill-rule="evenodd" opacity="0.5" stroke="none"/>
<path d="M345.419 185.138C345.419 176.302 352.582 169.138 361.419 169.138C370.256 169.138 377.419 176.302 377.419 185.138C377.419 193.975 370.256 201.138 361.419 201.138C352.582 201.138 345.419 193.975 345.419 185.138Z" fill="#5267df" fill-rule="evenodd" opacity="1" stroke="none"/>
<path d="M394.102 189.138L442.138 189.138C443.795 189.138 445.138 190.481 445.138 192.138L445.138 192.138C445.138 193.795 443.795 195.138 442.138 195.138L394.102 195.138C392.445 195.138 391.102 193.795 391.102 192.138L391.102 192.138C391.102 190.481 392.445 189.138 394.102 189.138Z" fill="#242a45" fill-rule="evenodd" opacity="0.25" stroke="none"/>
<g opacity="1">
<path d="M345.419 241.138C345.419 232.302 352.582 225.138 361.419 225.138C370.256 225.138 377.419 232.302 377.419 241.138C377.419 249.975 370.256 257.138 361.419 257.138C352.582 257.138 345.419 249.975 345.419 241.138Z" fill="#fa5959" fill-rule="evenodd" opacity="1" stroke="none"/>
<path d="M394.102 231.138L489.419 231.138C491.076 231.138 492.419 232.481 492.419 234.138L492.419 234.138C492.419 235.795 491.076 237.138 489.419 237.138L394.102 237.138C392.445 237.138 391.102 235.795 391.102 234.138L391.102 234.138C391.102 232.481 392.445 231.138 394.102 231.138Z" fill="#242a45" fill-rule="evenodd" opacity="0.5" stroke="none"/>
<path d="M394.102 245.138L442.138 245.138C443.795 245.138 445.138 246.481 445.138 248.138L445.138 248.138C445.138 249.795 443.795 251.138 442.138 251.138L394.102 251.138C392.445 251.138 391.102 249.795 391.102 248.138L391.102 248.138C391.102 246.481 392.445 245.138 394.102 245.138Z" fill="#242a45" fill-rule="evenodd" opacity="0.25" stroke="none"/>
</g>
<g opacity="1">
<path d="M345.419 297.138C345.419 288.302 352.582 281.138 361.419 281.138C370.256 281.138 377.419 288.302 377.419 297.138C377.419 305.975 370.256 313.138 361.419 313.138C352.582 313.138 345.419 305.975 345.419 297.138Z" fill="#5267df" fill-rule="evenodd" opacity="1" stroke="none"/>
<path d="M394.102 287.138L489.419 287.138C491.076 287.138 492.419 288.481 492.419 290.138L492.419 290.138C492.419 291.795 491.076 293.138 489.419 293.138L394.102 293.138C392.445 293.138 391.102 291.795 391.102 290.138L391.102 290.138C391.102 288.481 392.445 287.138 394.102 287.138Z" fill="#242a45" fill-rule="evenodd" opacity="0.5" stroke="none"/>
<path d="M394.102 301.138L442.138 301.138C443.795 301.138 445.138 302.481 445.138 304.138L445.138 304.138C445.138 305.795 443.795 307.138 442.138 307.138L394.102 307.138C392.445 307.138 391.102 305.795 391.102 304.138L391.102 304.138C391.102 302.481 392.445 301.138 394.102 301.138Z" fill="#242a45" fill-rule="evenodd" opacity="0.25" stroke="none"/>
</g>
<g opacity="1">
<path d="M345.419 353.138C345.419 344.302 352.582 337.138 361.419 337.138C370.256 337.138 377.419 344.302 377.419 353.138C377.419 361.975 370.256 369.138 361.419 369.138C352.582 369.138 345.419 361.975 345.419 353.138Z" fill="#5267df" fill-rule="evenodd" opacity="1" stroke="none"/>
<path d="M394.102 343.138L489.419 343.138C491.076 343.138 492.419 344.481 492.419 346.138L492.419 346.138C492.419 347.795 491.076 349.138 489.419 349.138L394.102 349.138C392.445 349.138 391.102 347.795 391.102 346.138L391.102 346.138C391.102 344.481 392.445 343.138 394.102 343.138Z" fill="#242a45" fill-rule="evenodd" opacity="0.5" stroke="none"/>
<path d="M394.102 357.138L442.138 357.138C443.795 357.138 445.138 358.481 445.138 360.138L445.138 360.138C445.138 361.795 443.795 363.138 442.138 363.138L394.102 363.138C392.445 363.138 391.102 361.795 391.102 360.138L391.102 360.138C391.102 358.481 392.445 357.138 394.102 357.138Z" fill="#242a45" fill-rule="evenodd" opacity="0.25" stroke="none"/>
</g>
</g>
</g>
<path d="M106.419 87.1382L327.419 87.1382C331.837 87.1382 335.419 90.72 335.419 95.1382L335.419 113.138C335.419 117.557 331.837 121.138 327.419 121.138L106.419 121.138C102.001 121.138 98.419 117.557 98.419 113.138L98.419 95.1382C98.419 90.72 102.001 87.1382 106.419 87.1382Z" fill="#ffffff" fill-rule="evenodd" opacity="1" stroke="none"/>
<g opacity="1">
<path d="M376.419 171.138C376.419 134.135 406.416 104.138 443.419 104.138C480.422 104.138 510.419 134.135 510.419 171.138C510.419 208.141 480.422 238.138 443.419 238.138C406.416 238.138 376.419 208.141 376.419 171.138Z" fill="#495dcf" fill-opacity="0.2" fill-rule="evenodd" opacity="1" stroke="#5267df" stroke-linecap="butt" stroke-linejoin="miter" stroke-width="20"/>
<path d="M490.419 219.138L539.419 268.138" fill="none" opacity="1" stroke="#5267df" stroke-linecap="round" stroke-linejoin="round" stroke-width="20"/>
</g>
</g>
</g>
</svg>
