<?xml version="1.0" encoding="UTF-8" standalone="no"?>
<!DOCTYPE svg PUBLIC "-//W3C//DTD SVG 1.1//EN" "http://www.w3.org/Graphics/SVG/1.1/DTD/svg11.dtd">
<!-- Created with Vectornator (http://vectornator.io/) -->
<svg height="100%" stroke-miterlimit="10" style="fill-rule:nonzero;clip-rule:evenodd;stroke-linecap:round;stroke-linejoin:round;" version="1.1" viewBox="0 0 550 400" width="100%" xml:space="preserve" xmlns="http://www.w3.org/2000/svg" xmlns:vectornator="http://vectornator.io" xmlns:xlink="http://www.w3.org/1999/xlink">
<defs/>
<g id="Calque-1" vectornator:layerName="Calque 1">
<g opacity="1">
<path d="M68.8068 10.0441L402.807 10.0441C407.225 10.0441 410.807 13.6258 410.807 18.0441L410.807 348.044C410.807 352.462 407.225 356.044 402.807 356.044L68.8068 356.044C64.3885 356.044 60.8068 352.462 60.8068 348.044L60.8068 18.0441C60.8068 13.6258 64.3885 10.0441 68.8068 10.0441Z" fill="#e8eaf6" fill-rule="nonzero" opacity="1" stroke="none"/>
<g opacity="1">
<clipPath id="ClipPath">
<path d="M68.8068 10.0441L402.807 10.0441C407.225 10.0441 410.807 13.6258 410.807 18.0441L410.807 348.044C410.807 352.462 407.225 356.044 402.807 356.044L68.8068 356.044C64.3885 356.044 60.8068 352.462 60.8068 348.044L60.8068 18.0441C60.8068 13.6258 64.3885 10.0441 68.8068 10.0441Z"/>
</clipPath>
<g clip-path="url(#ClipPath)">
<path d="M57.2768 10.2411L604.277 10.2411L604.277 69.2411L57.2768 69.2411L57.2768 10.2411Z" fill="#242a45" fill-rule="evenodd" opacity="1" stroke="none"/>
<g opacity="1">
<path d="M83.2768 40.2411C83.2768 31.4045 90.4403 24.2411 99.2768 24.2411C108.113 24.2411 115.277 31.4045 115.277 40.2411C115.277 49.0777 108.113 56.2411 99.2768 56.2411C90.4403 56.2411 83.2768 49.0777 83.2768 40.2411Z" fill="#ffffff" fill-rule="evenodd" opacity="0.245" stroke="none"/>
<g opacity="1">
<path d="M133.277 30.2411L247.277 30.2411C248.934 30.2411 250.277 31.5842 250.277 33.2411L250.277 33.2411C250.277 34.898 248.934 36.2411 247.277 36.2411L133.277 36.2411C131.62 36.2411 130.277 34.898 130.277 33.2411L130.277 33.2411C130.277 31.5842 131.62 30.2411 133.277 30.2411Z" fill="#ffffff" fill-rule="evenodd" opacity="0.75" stroke="none"/>
<path d="M133.277 44.2411L191.277 44.2411C192.934 44.2411 194.277 45.5842 194.277 47.2411L194.277 47.2411C194.277 48.898 192.934 50.2411 191.277 50.2411L133.277 50.2411C131.62 50.2411 130.277 48.898 130.277 47.2411L130.277 47.2411C130.277 45.5842 131.62 44.2411 133.277 44.2411Z" fill="#ffffff" fill-rule="evenodd" opacity="0.25" stroke="none"/>
</g>
</g>
</g>
</g>
<path d="M95.8068 95.0441L316.807 95.0441C321.225 95.0441 324.807 98.6258 324.807 103.044L324.807 121.044C324.807 125.462 321.225 129.044 316.807 129.044L95.8068 129.044C91.3885 129.044 87.8068 125.462 87.8068 121.044L87.8068 103.044C87.8068 98.6258 91.3885 95.0441 95.8068 95.0441Z" fill="#ffffff" fill-rule="evenodd" opacity="1" stroke="none"/>
<path d="M95.8068 143.044L316.807 143.044C321.225 143.044 324.807 146.626 324.807 151.044L324.807 169.044C324.807 173.462 321.225 177.044 316.807 177.044L95.8068 177.044C91.3885 177.044 87.8068 173.462 87.8068 169.044L87.8068 151.044C87.8068 146.626 91.3885 143.044 95.8068 143.044Z" fill="#ffffff" fill-rule="evenodd" opacity="1" stroke="none"/>
<path d="M95.8068 191.044L316.807 191.044C321.225 191.044 324.807 194.626 324.807 199.044L324.807 217.044C324.807 221.462 321.225 225.044 316.807 225.044L95.8068 225.044C91.3885 225.044 87.8068 221.462 87.8068 217.044L87.8068 199.044C87.8068 194.626 91.3885 191.044 95.8068 191.044Z" fill="#ffffff" fill-rule="evenodd" opacity="1" stroke="none"/>
<path d="M95.8068 239.044L316.807 239.044C321.225 239.044 324.807 242.626 324.807 247.044L324.807 265.044C324.807 269.462 321.225 273.044 316.807 273.044L95.8068 273.044C91.3885 273.044 87.8068 269.462 87.8068 265.044L87.8068 247.044C87.8068 242.626 91.3885 239.044 95.8068 239.044Z" fill="#ffffff" fill-rule="evenodd" opacity="1" stroke="none"/>
<path d="M95.8068 287.044L316.807 287.044C321.225 287.044 324.807 290.626 324.807 295.044L324.807 313.044C324.807 317.462 321.225 321.044 316.807 321.044L95.8068 321.044C91.3885 321.044 87.8068 317.462 87.8068 313.044L87.8068 295.044C87.8068 290.626 91.3885 287.044 95.8068 287.044Z" fill="#ffffff" fill-rule="evenodd" opacity="1" stroke="none"/>
<g opacity="1">
<g opacity="1">
<clipPath id="ClipPath_2">
<path d="M500.807 93.0921L151.026 93.0921L151.026 389.044L500.807 389.044L500.807 93.0921Z"/>
</clipPath>
<g clip-path="url(#ClipPath_2)">
<path d="M152.1 343.384C152.77 345.402 153.815 347.382 155.274 349.319C180.476 382.793 274.65 393.951 367.498 387.133C415.974 383.571 450.168 362.607 471.779 343.383C476.465 339.217 480.924 334.803 485.139 330.161C489.808 325.016 493.452 319.301 496.049 313.266C503.696 295.488 502.223 274.95 490.926 258.105C481.349 243.829 468.204 233.281 461.413 221.562C448.481 199.244 516.85 142.826 472.359 107.182C456.655 94.5981 423.199 91.6941 386.697 93.6461C342.269 96.0241 293.332 105.601 266.413 113.691C210.701 130.428 175.833 154.671 167.874 181.947C159.916 209.223 181.185 221.565 199.754 247.601C217.249 272.127 141.201 310.598 152.1 343.384" fill="#3a499e" fill-rule="evenodd" opacity="1" stroke="none"/>
</g>
</g>
<path d="M246.258 183.916L263.243 181.044L265.807 196.843L244.807 203.044L246.258 183.916Z" fill="#306299" fill-rule="evenodd" opacity="1" stroke="none"/>
<path d="M263.807 182.162C263.807 182.162 276.983 181.814 290.807 176.044L284.311 188.298L265.558 194.044L263.807 182.162Z" fill="#fa9e89" fill-rule="evenodd" opacity="1" stroke="none"/>
<g opacity="1">
<clipPath id="ClipPath_3">
<path d="M498.807 95.0921L340.982 95.0921L340.982 314.936L498.807 314.936L498.807 95.0921Z"/>
</clipPath>
<g clip-path="url(#ClipPath_3)">
<path d="M341.741 147.23C349.853 187.389 487.747 248.92 494.377 314.936C501.495 297.184 500.124 276.678 489.607 259.858C480.693 245.603 468.457 235.071 462.136 223.369C450.097 201.087 513.741 144.751 472.326 109.161C457.707 96.5961 426.565 93.6961 392.586 95.6461C382.242 98.0101 334.422 110.977 341.741 147.23" fill="#ffffff" fill-rule="evenodd" opacity="0.152" stroke="none"/>
</g>
</g>
<path d="M148.987 336.044C148.002 343.91 151.327 349.38 152.627 351.271C175.056 383.943 297.121 394.834 379.757 388.179C422.903 384.703 458.262 362.464 479.807 337.959L148.987 336.044Z" fill="#000000" fill-rule="evenodd" opacity="0.149" stroke="none"/>
<path d="M427.18 339.856C427.18 339.856 437.257 340.466 437.102 343.516C436.947 346.566 430.591 353.274 430.591 353.274L440.1 349.869L468.807 348.776L465.707 351.445C465.707 351.445 442.58 352.512 441.547 353.325C440.513 354.138 427.283 364.101 425.01 364.507C422.736 364.914 278.322 364.732 278.322 364.732C278.322 364.732 263.464 365.321 260.983 360.746C258.503 356.172 249.511 356.476 247.03 360.441C244.55 364.406 244.894 379.044 244.894 379.044C244.894 379.044 238.101 377.271 237.728 377.113C214.163 367.15 187.807 336.044 187.807 336.044C187.807 336.044 427.18 339.856 427.18 339.856Z" fill="#000000" fill-rule="evenodd" opacity="0.128" stroke="none"/>
<path d="M457.807 300.739L443.357 349.902C443.357 349.902 441.301 352.346 439.807 350.082L449.521 300.044C449.521 300.044 457.807 300.739 457.807 300.739ZM477.673 299.044L484.807 332.182L481.41 336.044L471.807 299.998L477.673 299.044Z" fill="#162f44" fill-rule="evenodd" opacity="1" stroke="none"/>
<path d="M265.314 310.126L259.289 344.326L258.29 349.995L260.482 350.317L260.638 350.341L265.426 351.044C265.426 351.044 281.397 311.7 282.756 302.257C284.117 292.814 257.611 255.044 257.611 255.044L228.843 257.492C228.082 265.711 239.587 281.203 249.87 293.262C257.971 302.761 265.314 310.126 265.314 310.126" fill="#f4f2f9" fill-rule="evenodd" opacity="1" stroke="none"/>
<path d="M264.927 308.579L258.05 348.346L260.196 348.667L260.269 349.044L260.349 348.692C261.224 344.862 271.489 310.955 271.801 304.044C272.134 296.718 257.774 274.044 257.774 274.044L249.807 291.758C257.737 301.232 264.927 308.578 264.927 308.578" fill="#e0dfea" fill-rule="evenodd" opacity="1" stroke="none"/>
<path d="M226.807 259.044L255.474 256.657L256.807 208.93C256.807 208.93 249.807 184.044 242.14 184.044C237.587 184.044 233.154 185.848 230.44 190.239C228.587 193.242 227.537 197.459 227.807 203.135C228.417 215.912 227.077 252.042 226.84 258.157C226.82 258.734 226.807 259.044 226.807 259.044" fill="#6397d9" fill-rule="evenodd" opacity="1" stroke="none"/>
<path d="M234.692 255.32L234.154 198.502L240.807 184.982L233.044 184.044L230.315 187.254C228.525 190.257 227.512 194.474 227.773 200.148C228.362 212.922 227.036 249.93 226.807 256.044C226.807 256.044 234.692 255.32 234.692 255.32Z" fill="#8bbff7" fill-rule="evenodd" opacity="1" stroke="none"/>
<path d="M234.807 200.044L255.824 240.044L256.37 222.053L256.807 207.455L239.283 200.044L234.807 200.044Z" fill="#306299" fill-rule="evenodd" opacity="1" stroke="none"/>
<path d="M288.478 363.044L417.137 363.044C421.926 363.044 425.808 359.136 425.808 354.314L425.808 133.774C425.808 128.952 421.926 125.044 417.137 125.044L288.477 125.044C283.688 125.044 279.806 128.952 279.806 133.774L279.806 354.314C279.806 359.136 283.688 363.044 288.477 363.044" fill="#ffffff" fill-rule="evenodd" opacity="1" stroke="none"/>
<path d="M287.807 156.334L287.807 244.754C287.807 246.572 289.263 248.044 291.06 248.044L414.554 248.044C416.351 248.044 417.807 246.572 417.807 244.754L417.807 156.334C417.807 154.516 416.351 153.044 414.554 153.044L291.06 153.044C289.263 153.044 287.807 154.516 287.807 156.334" fill="#e4dcf1" fill-rule="evenodd" opacity="1" stroke="none"/>
<path d="M351.954 177.044L353.506 178.227L356.807 192.598L356.736 194.965L351.509 195.044C351.154 195.049 350.796 194.979 350.479 194.794C348.984 193.916 348.346 191.469 349.171 189.301C349.615 188.135 350.752 186.071 350.884 185.159C351.198 182.975 351.954 177.044 351.954 177.044" fill="#8e2b43" fill-rule="evenodd" opacity="1" stroke="none"/>
<path d="M324.807 251.044L379.031 250.836L380.826 250.83C380.826 250.83 387.313 220.181 376.81 208.369C374.252 205.495 370.927 203.376 367.304 201.999C356.031 197.702 341.851 200.544 338.811 209.965C334.795 222.416 324.807 251.044 324.807 251.044" fill="#4ec9b4" fill-rule="evenodd" opacity="1" stroke="none"/>
<path d="M366.967 202.533C366.967 202.533 364.752 208.559 359.864 209.827C354.976 211.096 349.375 206.603 349.834 201.37C349.834 201.37 354.518 200.683 355.281 198.41C356.209 195.65 355.587 195.556 355.587 195.556C355.587 195.556 353.754 192.066 353.143 189.53C352.532 186.993 353.448 177.16 357.725 176.21C360.43 175.608 364.752 176.527 367.807 180.967C367.807 180.967 366.279 189.53 364.141 193.653C362.002 197.776 360.933 199.679 366.967 202.533" fill="#fa9e89" fill-rule="evenodd" opacity="1" stroke="none"/>
<path d="M290.974 126.057L423.807 312.283L423.807 354.527C423.807 359.231 420.107 363.044 415.544 363.044L295.38 363.044C290.093 363.044 285.807 358.626 285.807 353.175L285.807 129.871C285.807 126.942 288.137 125.915 290.974 126.057" fill="#f4f2f9" fill-rule="evenodd" opacity="0.184" stroke="none"/>
<path d="M330.807 232.486L323.825 202.044L312.807 203.86L323.491 248.044L330.807 232.486Z" fill="#4ec9b4" fill-rule="evenodd" opacity="1" stroke="none"/>
<path d="M321.607 201.181L321.007 198.075C321.007 198.075 322.807 196.891 322.507 195.116C322.207 193.341 322.807 189.199 322.807 189.199C322.807 189.199 321.85 188.552 321.232 189.717C320.792 190.546 320.107 192.454 320.107 192.454C320.107 192.454 317.811 186.288 317.281 184.664C317.056 183.973 316.829 182.897 316.306 183.061C316.031 183.147 316.131 183.776 316.178 184.391C316.318 186.235 317.106 189.175 317.106 189.175L316.706 189.409L315.043 184.133C314.97 183.877 314.85 183.489 314.581 183.468C314.343 183.448 314.106 183.578 314.106 184.17C314.106 185.354 315.381 190.247 315.381 190.247L315.062 190.466L313.127 186.188C312.994 185.865 312.514 185.893 312.432 186.232C312.367 186.5 312.386 186.882 312.605 187.424C313.205 188.904 313.805 191.27 313.805 191.27L313.655 191.443L312.605 189.273C312.417 188.926 311.956 188.703 311.822 189.073C311.634 189.591 313.28 194.043 313.28 194.34C313.28 194.636 314.406 198.666 315.606 198.962C316.806 199.258 316.881 202.044 316.881 202.044C316.881 202.044 321.607 201.181 321.607 201.181Z" fill="#fa9e89" fill-rule="evenodd" opacity="1" stroke="none"/>
<path d="M391.158 274.044L413.457 274.044C414.755 274.044 415.808 272.972 415.808 271.65L415.808 268.438C415.808 267.116 414.755 266.044 413.457 266.044L391.159 266.044C389.861 266.044 388.808 267.116 388.808 268.438L388.808 271.65C388.808 272.972 389.861 274.044 391.159 274.044M359.159 274.044L381.457 274.044C382.755 274.044 383.808 272.972 383.808 271.65L383.808 268.438C383.808 267.116 382.755 266.044 381.457 266.044L359.159 266.044C357.861 266.044 356.808 267.116 356.808 268.438L356.808 271.65C356.808 272.972 357.861 274.044 359.159 274.044M325.159 274.044L347.457 274.044C348.755 274.044 349.808 272.972 349.808 271.65L349.808 268.438C349.808 267.116 348.755 266.044 347.457 266.044L325.16 266.044C323.861 266.044 322.808 267.116 322.808 268.438L322.808 271.65C322.808 272.972 323.861 274.044 325.16 274.044M293.16 274.044L315.457 274.044C316.755 274.044 317.808 272.972 317.808 271.65L317.808 268.438C317.808 267.116 316.755 266.044 315.457 266.044L293.159 266.044C291.861 266.044 290.808 267.116 290.808 268.438L290.808 271.65C290.808 272.972 291.861 274.044 293.159 274.044" fill="#ffdedd" fill-rule="evenodd" opacity="1" stroke="none"/>
<path d="M295.354 293.044L413.26 293.044C414.667 293.044 415.807 291.964 415.807 290.634L415.807 287.454C415.807 286.124 414.667 285.044 413.26 285.044L295.354 285.044C293.947 285.044 292.807 286.124 292.807 287.454L292.807 290.634C292.807 291.964 293.947 293.044 295.354 293.044M413.26 309.044C414.667 309.044 415.807 307.964 415.807 306.634L415.807 303.454C415.807 302.124 414.667 301.044 413.26 301.044L295.354 301.044C293.947 301.044 292.807 302.124 292.807 303.454L292.807 306.634C292.807 307.964 293.947 309.044 295.354 309.044C295.354 309.044 413.26 309.044 413.26 309.044ZM295.354 325.044L413.26 325.044C414.667 325.044 415.807 323.964 415.807 322.634L415.807 319.454C415.807 318.124 414.667 317.044 413.26 317.044L295.354 317.044C293.947 317.044 292.807 318.124 292.807 319.454L292.807 322.634C292.807 323.964 293.947 325.044 295.354 325.044M295.354 338.044L413.26 338.044C414.667 338.044 415.807 336.964 415.807 335.634L415.807 332.454C415.807 331.124 414.667 330.044 413.26 330.044L295.354 330.044C293.947 330.044 292.807 331.124 292.807 332.454L292.807 335.634C292.807 336.964 293.947 338.044 295.354 338.044" fill="#f4f2f9" fill-rule="evenodd" opacity="1" stroke="none"/>
<path d="M370.029 173.365C370.029 173.365 363.729 164.517 351.839 169.64C339.951 174.762 352.856 183.144 352.856 183.144C352.856 183.144 353.11 179.884 354.99 178.953L354.837 181.85L361.493 183.015L362.56 180.221L363.246 183.403L366.599 184.644C366.599 184.644 363.856 194.268 362.255 195.665C362.255 195.665 361.569 197.915 361.798 198.381C362.026 198.847 372.162 201.408 373.458 199.08C374.754 196.752 372.086 193.492 371.248 191.319C370.41 189.146 372.772 177.608 370.028 173.365" fill="#fc516b" fill-rule="evenodd" opacity="1" stroke="none"/>
<path d="M399.159 149.044L416.455 149.044C417.754 149.044 418.807 147.701 418.807 146.044C418.807 144.387 417.754 143.044 416.455 143.044L399.159 143.044C397.86 143.044 396.807 144.387 396.807 146.044C396.807 147.701 397.86 149.044 399.159 149.044" fill="#e4dcf1" fill-rule="evenodd" opacity="1" stroke="none"/>
<path d="M372.807 221.044C372.807 221.044 370.143 240.33 367.097 248.044L351.037 248.044C351.037 248.044 348.389 239.906 361.084 237.244C369.914 235.393 372.807 221.044 372.807 221.044M341.196 216.044C341.196 216.044 337.936 226.044 338.548 229.044C339.158 232.044 341.807 234.244 341.807 236.244C341.807 238.244 340.177 245.844 340.177 245.844L330.807 246.044C330.807 246.044 332.363 245.778 335.9 242.994C341.298 238.744 336.664 229.369 337.81 224.044C338.41 221.25 341.196 216.044 341.196 216.044M330.807 231.816C330.807 231.816 330.594 240.199 328.892 238.909C327.19 237.619 328.254 225.152 326.765 220.853C325.275 216.553 320.807 202.796 320.807 202.796L324.637 202.044C324.637 202.044 330.807 231.816 330.807 231.816Z" fill="#44ad99" fill-rule="evenodd" opacity="1" stroke="none"/>
<path d="M305.43 193.519C305.43 193.519 303.854 194.211 301.93 196.565C301.294 197.345 297.9 198.586 297.097 199.553C285.452 213.573 269.901 224.394 259.934 220.086C247.204 214.584 244.807 209.468 244.807 209.468L253.221 198.106C253.221 198.106 262.884 212.865 270.655 208.845C278.427 204.825 293.747 194.288 293.747 194.288L294.153 187.824C294.153 187.824 295.048 187.584 295.477 188.819C295.907 190.055 295.927 191.123 295.927 191.123L301.976 184.099C301.976 184.099 303.138 183.739 302.784 184.868C302.43 185.998 300.293 189.236 300.293 189.236C300.293 189.236 300.073 189.852 300.536 189.571C301.076 189.244 305.302 184.479 305.302 184.479C305.302 184.479 306.275 184.415 305.878 185.345C305.571 186.062 303.013 189.435 302.148 190.699C301.89 191.075 302.43 190.934 302.43 190.934L305.926 187.964C306.399 187.645 306.889 187.751 306.796 188.332C306.721 188.792 305.769 189.851 305.203 190.271C303.789 191.317 302.803 193.223 302.803 193.223L305.847 192.123C305.847 192.123 306.442 192.651 305.43 193.519M233.807 156.534L237.657 184.854L250.303 187.044C250.303 187.044 249.663 186.376 248.931 185.484C248.183 184.577 247.341 183.434 246.968 182.518C246.118 180.414 246.112 178.452 246.112 178.452C246.112 178.452 251.72 179.085 252.589 175.857C253.461 172.625 251.446 157.573 251.446 157.573C251.446 157.573 248.943 148.114 233.807 156.534" fill="#fa9e89" fill-rule="evenodd" opacity="1" stroke="none"/>
<path d="M244.42 156.856C244.42 156.856 250.656 161.566 256.639 157.554C256.639 157.554 252.847 157.204 251.667 155.286C251.667 155.286 254.027 155.896 256.807 151.972C256.807 151.972 251.92 152.67 250.235 151.187C248.549 149.704 239.955 147.349 234.815 150.925C229.674 154.501 229.758 157.118 229.758 157.118C229.758 157.118 226.725 158.251 226.808 159.996C226.893 161.74 234.308 176.044 234.308 176.044L235.909 169.677C235.909 169.677 234.645 170.055 233.887 167.09C233.129 164.124 236.415 165.403 236.752 166.014C237.089 166.624 239.28 161.827 239.28 161.827L238.943 159.037C238.943 159.037 237.847 155.46 244.42 156.857" fill="#261f27" fill-rule="evenodd" opacity="1" stroke="none"/>
<path d="M232.593 289.428C236.184 303.915 229.543 361.837 229.543 361.837L236.041 363.044C262.201 303.029 256.217 254.044 256.217 254.044L226.807 256.458C226.807 256.458 226.882 255.234 226.913 255.524C227.251 258.532 229.321 276.213 232.593 289.428" fill="#ffffff" fill-rule="evenodd" opacity="1" stroke="none"/>
<path d="M265.077 347.12L272.63 352.979C272.63 352.979 275.605 352.62 276.178 353.995C276.75 355.37 276.807 356.925 276.807 356.925L268.911 357.044L255.807 351.843L257.867 346.044C257.867 346.044 265.077 347.12 265.077 347.12ZM235.257 364.384C235.257 364.384 237.929 368.706 240.622 372.236C241.527 373.422 243.739 373.937 244.6 376.831C245.34 379.321 243.86 381.044 243.86 381.044C243.86 381.044 238.895 380.15 235.441 377.087C231.988 374.023 226.807 368.15 226.807 368.15L228.225 363.044L235.256 364.384L235.257 364.384Z" fill="#6397d9" fill-rule="evenodd" opacity="1" stroke="none"/>
<path d="M434.807 292.044C434.807 295.91 447.791 299.044 463.807 299.044C479.823 299.044 492.807 295.91 492.807 292.044C492.807 288.178 479.823 285.044 463.807 285.044C447.791 285.044 434.807 288.178 434.807 292.044" fill="#224a7d" fill-rule="evenodd" opacity="1" stroke="none"/>
<path d="M434.807 291.044C434.807 294.91 447.791 298.044 463.807 298.044C479.823 298.044 492.807 294.91 492.807 291.044C492.807 287.178 479.823 284.044 463.807 284.044C447.791 284.044 434.807 287.178 434.807 291.044" fill="#6397d9" fill-rule="evenodd" opacity="1" stroke="none"/>
<path d="M455.807 287.044C455.807 288.701 461.18 290.044 467.807 290.044C474.434 290.044 479.807 288.701 479.807 287.044C479.807 285.387 474.434 284.044 467.807 284.044C461.18 284.044 455.807 285.387 455.807 287.044M492.807 290.044L492.807 294.03C492.807 294.03 492.737 296.494 487.807 298.044L488.986 293.726C488.986 293.726 492.449 292.231 492.807 290.044" fill="#162f44" fill-rule="evenodd" opacity="1" stroke="none"/>
<path d="M434.813 290.044L434.813 294.129C434.813 294.129 434.423 296.172 439.807 298.044L438.155 293.278C438.155 293.278 435.295 292.001 434.813 290.044" fill="#8cc5f2" fill-rule="evenodd" opacity="1" stroke="none"/>
<path d="M453.807 277.082L455.775 284.772C456.263 286.686 458.198 288.044 460.428 288.044L464.661 288.044C466.246 288.044 467.686 287.359 468.561 286.272C468.867 285.892 469.102 285.459 469.253 284.994L470.959 279.681L471.807 277.044C471.807 277.044 453.807 277.082 453.807 277.082Z" fill="#fc516b" fill-rule="evenodd" opacity="1" stroke="none"/>
<path d="M453.807 276.044C453.807 276.596 457.837 277.044 462.807 277.044C467.777 277.044 471.807 276.596 471.807 276.044C471.807 275.492 467.777 275.044 462.807 275.044C457.837 275.044 453.807 275.492 453.807 276.044" fill="#9b293f" fill-rule="evenodd" opacity="1" stroke="none"/>
<path d="M466.213 286.701C465.859 286.838 465.525 286.954 465.213 287.044L467.323 286.72C467.617 286.311 467.84 285.854 467.98 285.37L469.596 279.762C469.677 279.492 469.807 279.062 469.807 279.044C469.807 279.044 465.592 280.286 461.807 279.862C463.038 280.026 466.117 280.274 467.975 280.182C468.191 280.168 468.401 280.252 468.549 280.409C468.697 280.567 468.766 280.783 468.739 280.997C468.505 282.654 467.834 286.071 466.213 286.701" fill="#f995a9" fill-rule="evenodd" opacity="1" stroke="none"/>
<path d="M461.807 273.945L462.486 277.032L462.98 277.044C462.98 277.044 463.008 273.945 466.654 272.044C470.304 270.144 469.781 263.044 469.781 263.044L469.778 263.053C469.69 263.236 468.29 266.153 467.229 266.343C466.135 266.545 465.456 268.293 465.456 268.293C465.456 268.293 464.934 269.043 464.309 268.893C463.683 268.743 463.058 270.393 463.058 270.393L462.851 272.145C462.851 272.145 461.807 273.945 461.807 273.945Z" fill="#51a595" fill-rule="evenodd" opacity="1" stroke="none"/>
<path d="M466.8 280.031C466.8 280.031 467.5 256.595 455.2 250.044C455.2 250.044 451.699 251.396 455.8 257.011C459.9 262.626 456.599 266.681 458.4 268.138C460.2 269.593 462.8 270.529 462.4 272.401C462 274.273 462.5 276.145 463.3 276.353C464.1 276.56 465.9 277.665 466.18 280.044C466.18 280.044 466.8 280.031 466.8 280.031Z" fill="#4ec9b4" fill-rule="evenodd" opacity="1" stroke="none"/>
<path d="M466.807 275.844L466.847 277.032L467.385 277.044C467.385 277.044 467.415 273.945 471.379 272.044C475.347 270.144 474.779 263.044 474.779 263.044L474.775 263.053L474.439 264.121C474.439 270.571 470.716 271.908 469.227 272.769C467.738 273.63 466.807 275.844 466.807 275.844" fill="#41877a" fill-rule="evenodd" opacity="1" stroke="none"/>
<path d="M246.992 187.149C246.992 187.149 236.44 187.321 235.498 186.044L234.807 187.942C234.807 187.942 243.167 192.499 248.807 190.566C248.807 190.566 246.992 187.149 246.992 187.149Z" fill="#306299" fill-rule="evenodd" opacity="1" stroke="none"/>
<path d="M261.807 200.96L249.219 215.044C249.219 215.044 232.397 199.962 232.815 195.234C233.232 190.507 239.395 180.719 248.849 189.711C258.047 198.459 261.807 200.96 261.807 200.96" fill="#8cc5f2" fill-rule="evenodd" opacity="1" stroke="none"/>
<path d="M229.372 362.698L231.938 363.044C231.938 363.044 243.964 320.574 240.008 289.197C238.819 279.763 234.664 256.044 234.664 256.044L226.807 256.781C227.125 259.804 229.164 276.636 232.233 289.918C235.6 304.48 229.373 362.698 229.373 362.698" fill="#f4f2f9" fill-rule="evenodd" opacity="1" stroke="none"/>
<path d="M243.06 185.602C244.548 185.926 245.359 186.029 245.807 186.044C245.109 185.078 244.323 183.862 243.975 182.886C243.182 180.645 243.176 178.556 243.176 178.556C243.176 178.556 240.205 177.774 239.899 178.143C239.595 178.511 239.899 184.913 243.06 185.602" fill="#e6846f" fill-rule="evenodd" opacity="1" stroke="none"/>
<path d="M388.807 189.044C388.807 199.536 396.855 208.044 406.78 208.044C410.936 208.044 414.761 206.553 417.807 204.048L417.807 174.04C414.761 171.534 410.937 170.044 406.78 170.044C396.855 170.044 388.807 178.552 388.807 189.044" fill="#cec3e2" fill-rule="evenodd" opacity="1" stroke="none"/>
<path d="M388.807 189.544C388.807 199.76 396.3 208.044 405.541 208.044C409.411 208.044 412.971 206.592 415.807 204.154L415.807 174.934C412.972 172.497 409.41 171.044 405.541 171.044C396.3 171.044 388.807 179.328 388.807 189.544" fill="#c3b8d8" fill-rule="evenodd" opacity="1" stroke="none"/>
<path d="M362.807 206.14C362.807 206.14 364.792 205.036 365.105 204.835C365.419 204.636 369.495 205.737 374.931 211.351C380.364 216.965 375.661 221.675 377.959 224.681C380.26 227.689 378.066 234.004 376.915 238.316C375.765 242.626 376.915 248.038 376.915 248.038L376.975 248.044L378.796 248.038C378.796 248.038 385.38 219.17 374.721 208.043C372.125 205.337 368.751 203.34 365.074 202.044C365.074 202.044 362.807 206.14 362.807 206.14Z" fill="#44ad99" fill-rule="evenodd" opacity="1" stroke="none"/>
</g>
</g>
</g>
</svg>
